<?xml version="1.0" encoding="UTF-8" standalone="no"?>
<svg
   xmlns:dc="http://purl.org/dc/elements/1.1/"
   xmlns:cc="http://creativecommons.org/ns#"
   xmlns:rdf="http://www.w3.org/1999/02/22-rdf-syntax-ns#"
   xmlns:svg="http://www.w3.org/2000/svg"
   xmlns="http://www.w3.org/2000/svg"
   xmlns:sodipodi="http://sodipodi.sourceforge.net/DTD/sodipodi-0.dtd"
   xmlns:inkscape="http://www.inkscape.org/namespaces/inkscape"
   version="1.1"
   x="0px"
   y="0px"
   viewBox="0 0 100 125"
   enable-background="new 0 0 100 100"
   xml:space="preserve"
   id="svg14"
   sodipodi:docname="Correct.svg"
   inkscape:version="0.92.2 (5c3e80d, 2017-08-06)"><metadata
     id="metadata20"><rdf:RDF><cc:Work
         rdf:about=""><dc:format>image/svg+xml</dc:format><dc:type
           rdf:resource="http://purl.org/dc/dcmitype/StillImage" /><dc:title></dc:title></cc:Work></rdf:RDF></metadata><defs
     id="defs18" /><sodipodi:namedview
     pagecolor="#ffffff"
     bordercolor="#666666"
     borderopacity="1"
     objecttolerance="10"
     gridtolerance="10"
     guidetolerance="10"
     inkscape:pageopacity="0"
     inkscape:pageshadow="2"
     inkscape:window-width="716"
     inkscape:window-height="480"
     id="namedview16"
     showgrid="false"
     inkscape:zoom="3.776"
     inkscape:cx="49.629934"
     inkscape:cy="71.170811"
     inkscape:window-x="2678"
     inkscape:window-y="348"
     inkscape:window-maximized="0"
     inkscape:current-layer="g8" /><g
     id="g8"><path
       d="M63.643,95c14.632,0,26.494,0.037,26.494-14.597c0-10.953-6.65-20.346-16.133-24.38c0.045,0.089,0.097,0.173,0.14,0.265   c0.564,1.209,0.93,2.468,1.095,3.691c0.41,0.115,0.814,0.272,1.205,0.48c2.905,1.555,4.001,5.169,2.445,8.075   c-1.555,2.904-5.169,3.999-8.074,2.445c-2.906-1.555-4-5.171-2.445-8.074c0.871-1.629,2.39-2.688,4.068-3.031   c-0.361-1.837-1.298-3.846-2.79-5.275c-1.161-0.271-2.352-0.467-3.566-0.577C65.976,58.854,50,70.707,50,70.707   S34.024,58.854,33.919,54.022c-0.854,0.078-1.696,0.197-2.524,0.354c-1.824,1.456-3.107,3.54-3.458,5.234   c0.653,0.367,1.164,0.97,1.449,1.711c2.482,1.088,4.685,3.531,6.382,7.081c0.25,0.524,0.25,1.122,0.012,1.645   c1.051,2.632,1.653,5.51,1.653,7.93c0,3.831-0.167,6.231-3.38,6.869c-0.307,0.301-0.716,0.47-1.148,0.47h-2.468   c-0.911,0-1.653-0.742-1.653-1.654V83.63v-0.005c0.021-0.894,0.756-1.616,1.653-1.616h2.468c0.239,0,0.474,0.053,0.692,0.154   c0.584-0.123,0.682-0.29,0.736-0.384c0.309-0.532,0.371-1.849,0.371-3.802c0-2.11-0.538-4.638-1.478-6.967   c-0.421-0.186-0.765-0.517-0.963-0.931c-1.618-3.387-3.809-5.489-5.714-5.489c-1.946,0-4.244,2.27-5.854,5.783   c-0.219,0.479-0.627,0.847-1.121,1.021c-0.86,2.252-1.333,4.58-1.333,6.582c0,1.531,0.031,3.215,0.402,3.81   c0.056,0.092,0.171,0.274,0.831,0.396c0.229-0.114,0.482-0.175,0.742-0.175h2.471c0.878,0,1.599,0.689,1.649,1.556l0.004,0.01   v0.088c0,0.912-0.742,1.654-1.653,1.654h-2.471c-0.406,0-0.796-0.153-1.1-0.426c-0.888-0.147-2.066-0.497-2.791-1.66   c-0.688-1.106-0.814-2.637-0.814-5.253c0-2.391,0.565-5.139,1.593-7.763c-0.173-0.478-0.153-0.997,0.059-1.457   c1.018-2.226,2.305-4.121,3.721-5.485c0.826-0.798,1.713-1.421,2.64-1.858c0.301-0.845,0.903-1.526,1.665-1.895   c0.174-1.233,0.657-2.518,1.383-3.738C16.784,59.675,9.864,69.23,9.864,80.403C9.864,95.037,21.726,95,36.357,95H63.643z"
       id="path2"
       style="fill:#93d250;fill-opacity:1" /><path
       d="M29.463,30.11c0.014,0.19,0.031,0.379,0.049,0.58C30.826,45.567,39.635,56.786,50,56.786s19.174-11.219,20.487-26.093   l0.046-0.545c0.09-0.619,0.152-1.257,0.192-1.951c0.026-0.45,0.044-0.901,0.044-1.358c0-1.103-0.08-2.215-0.236-3.309   C69.006,12.965,60.179,5,50,5s-19.006,7.965-20.533,18.528c-0.157,1.08-0.236,2.193-0.236,3.31c0,0.456,0.018,0.907,0.042,1.36   C29.314,28.9,29.378,29.538,29.463,30.11z"
       id="path4"
       style="fill:#93d250;fill-opacity:1" /><circle
       cx="73.629"
       cy="65.721"
       r="2.983"
       id="circle6"
       style="fill:#93d250;fill-opacity:1" /></g></svg>