<?xml version="1.0" encoding="UTF-8" standalone="no"?>
<!-- Created with Inkscape (http://www.inkscape.org/) -->

<svg
   width="210mm"
   height="297mm"
   viewBox="0 0 210 297"
   version="1.1"
   id="svg1"
   xml:space="preserve"
   inkscape:version="1.3 (0e150ed, 2023-07-21)"
   sodipodi:docname="flags.svg"
   xmlns:inkscape="http://www.inkscape.org/namespaces/inkscape"
   xmlns:sodipodi="http://sodipodi.sourceforge.net/DTD/sodipodi-0.dtd"
   xmlns="http://www.w3.org/2000/svg"
   xmlns:svg="http://www.w3.org/2000/svg"><sodipodi:namedview
     id="namedview1"
     pagecolor="#ffffff"
     bordercolor="#000000"
     borderopacity="0.25"
     inkscape:showpageshadow="2"
     inkscape:pageopacity="0.0"
     inkscape:pagecheckerboard="0"
     inkscape:deskcolor="#d1d1d1"
     inkscape:document-units="mm"
     inkscape:zoom="0.27842826"
     inkscape:cx="1178.0414"
     inkscape:cy="560.28796"
     inkscape:window-width="1920"
     inkscape:window-height="1027"
     inkscape:window-x="1920"
     inkscape:window-y="25"
     inkscape:window-maximized="1"
     inkscape:current-layer="layer1" /><defs
     id="defs1"><clipPath
       clipPathUnits="userSpaceOnUse"
       id="clipPath4013"><path
         d="M -167.3804,-42.563823 H 155.1426 V 19.262196 H -167.3804 Z"
         id="path4015"
         style="stroke-width:0.999998" /></clipPath><clipPath
       clipPathUnits="userSpaceOnUse"
       id="clipPath4009"><path
         d="M -167.3804,-42.563823 H 155.1426 V 19.262196 H -167.3804 Z"
         id="path4011"
         style="stroke-width:0.999998" /></clipPath><clipPath
       clipPathUnits="userSpaceOnUse"
       id="clipPath4005"><path
         d="M -170.6239,-44.674723 H 151.8991 V 17.151296 H -170.6239 Z"
         id="path4007"
         style="stroke-width:0.999998" /></clipPath><clipPath
       clipPathUnits="userSpaceOnUse"
       id="clipPath4001"><path
         d="M -170.6239,-44.674723 H 151.8991 V 17.151296 H -170.6239 Z"
         id="path4003"
         style="stroke-width:0.999998" /></clipPath><clipPath
       clipPathUnits="userSpaceOnUse"
       id="clipPath3997"><path
         d="M -172.445,-50.748923 H 150.078 V 11.077096 H -172.445 Z"
         id="path3999"
         style="stroke-width:0.999998" /></clipPath><clipPath
       clipPathUnits="userSpaceOnUse"
       id="clipPath3993"><path
         d="M -172.445,-50.748923 H 150.078 V 11.077096 H -172.445 Z"
         id="path3995"
         style="stroke-width:0.999998" /></clipPath><clipPath
       clipPathUnits="userSpaceOnUse"
       id="clipPath3989"><path
         d="M -176.8713,-53.943723 H 145.6517 V 7.8822963 H -176.8713 Z"
         id="path3991"
         style="stroke-width:0.999998" /></clipPath><clipPath
       clipPathUnits="userSpaceOnUse"
       id="clipPath3985"><path
         d="M -176.8713,-53.943723 H 145.6517 V 7.8822963 H -176.8713 Z"
         id="path3987"
         style="stroke-width:0.999998" /></clipPath><clipPath
       clipPathUnits="userSpaceOnUse"
       id="clipPath3981"><path
         d="M -182.0063,-56.181723 H 140.5167 V 5.6442963 H -182.0063 Z"
         id="path3983"
         style="stroke-width:0.999998" /></clipPath><clipPath
       clipPathUnits="userSpaceOnUse"
       id="clipPath3977"><path
         d="M -182.0063,-56.181723 H 140.5167 V 5.6442963 H -182.0063 Z"
         id="path3979"
         style="stroke-width:0.999998" /></clipPath><clipPath
       clipPathUnits="userSpaceOnUse"
       id="clipPath3973"><path
         d="M -187.6164,-53.540923 H 134.9066 V 8.2850963 H -187.6164 Z"
         id="path3975"
         style="stroke-width:0.999998" /></clipPath><clipPath
       clipPathUnits="userSpaceOnUse"
       id="clipPath3969"><path
         d="M -187.6164,-53.540923 H 134.9066 V 8.2850963 H -187.6164 Z"
         id="path3971"
         style="stroke-width:0.999998" /></clipPath><clipPath
       clipPathUnits="userSpaceOnUse"
       id="clipPath3965"><path
         d="M -193.7226,-53.370123 H 128.8004 V 8.4558963 H -193.7226 Z"
         id="path3967"
         style="stroke-width:0.999998" /></clipPath><clipPath
       clipPathUnits="userSpaceOnUse"
       id="clipPath3961"><path
         d="M -193.7226,-53.370123 H 128.8004 V 8.4558963 H -193.7226 Z"
         id="path3963"
         style="stroke-width:0.999998" /></clipPath><clipPath
       clipPathUnits="userSpaceOnUse"
       id="clipPath3957"><path
         d="M -198.3714,-55.034623 H 124.1516 V 6.7913963 H -198.3714 Z"
         id="path3959"
         style="stroke-width:0.999998" /></clipPath><clipPath
       clipPathUnits="userSpaceOnUse"
       id="clipPath3953"><path
         d="M -198.3714,-55.034623 H 124.1516 V 6.7913963 H -198.3714 Z"
         id="path3955"
         style="stroke-width:0.999998" /></clipPath><clipPath
       clipPathUnits="userSpaceOnUse"
       id="clipPath3949"><path
         d="M -201.5491,-54.815623 H 120.9739 V 7.0103963 H -201.5491 Z"
         id="path3951"
         style="stroke-width:0.999998" /></clipPath><clipPath
       clipPathUnits="userSpaceOnUse"
       id="clipPath3945"><path
         d="M -201.5491,-54.815623 H 120.9739 V 7.0103963 H -201.5491 Z"
         id="path3947"
         style="stroke-width:0.999998" /></clipPath><clipPath
       clipPathUnits="userSpaceOnUse"
       id="clipPath3941"><path
         d="M -207.5017,-49.024723 H 115.0213 V 12.801296 H -207.5017 Z"
         id="path3943"
         style="stroke-width:0.999998" /></clipPath><clipPath
       clipPathUnits="userSpaceOnUse"
       id="clipPath3937"><path
         d="M -207.5017,-49.024723 H 115.0213 V 12.801296 H -207.5017 Z"
         id="path3939"
         style="stroke-width:0.999998" /></clipPath><clipPath
       clipPathUnits="userSpaceOnUse"
       id="clipPath3933"><path
         d="M -211.1244,-46.866523 H 111.3986 V 14.959496 H -211.1244 Z"
         id="path3935"
         style="stroke-width:0.999998" /></clipPath><clipPath
       clipPathUnits="userSpaceOnUse"
       id="clipPath3929"><path
         d="M -211.1244,-46.866523 H 111.3986 V 14.959496 H -211.1244 Z"
         id="path3931"
         style="stroke-width:0.999998" /></clipPath><clipPath
       clipPathUnits="userSpaceOnUse"
       id="clipPath3925"><path
         d="M -211.9647,-43.884723 H 110.5583 V 17.941296 H -211.9647 Z"
         id="path3927"
         style="stroke-width:0.999998" /></clipPath><clipPath
       clipPathUnits="userSpaceOnUse"
       id="clipPath3921"><path
         d="M -211.9647,-43.884723 H 110.5583 V 17.941296 H -211.9647 Z"
         id="path3923"
         style="stroke-width:0.999998" /></clipPath><clipPath
       clipPathUnits="userSpaceOnUse"
       id="clipPath3917"><path
         d="M -169.306,-34.719823 H 153.217 V 27.106196 H -169.306 Z"
         id="path3919"
         style="stroke-width:0.999998" /></clipPath><clipPath
       clipPathUnits="userSpaceOnUse"
       id="clipPath3913"><path
         d="M -169.306,-34.719823 H 153.217 V 27.106196 H -169.306 Z"
         id="path3915"
         style="stroke-width:0.999998" /></clipPath><clipPath
       clipPathUnits="userSpaceOnUse"
       id="clipPath3909"><path
         d="M -169.0192,-30.330123 H 153.5038 V 31.495896 H -169.0192 Z"
         id="path3911"
         style="stroke-width:0.999998" /></clipPath><clipPath
       clipPathUnits="userSpaceOnUse"
       id="clipPath3905"><path
         d="M -169.0192,-30.330123 H 153.5038 V 31.495896 H -169.0192 Z"
         id="path3907"
         style="stroke-width:0.999998" /></clipPath><clipPath
       clipPathUnits="userSpaceOnUse"
       id="clipPath3901"><path
         d="M -168.9464,-22.631723 H 153.5766 V 39.194296 H -168.9464 Z"
         id="path3903"
         style="stroke-width:0.999998" /></clipPath><clipPath
       clipPathUnits="userSpaceOnUse"
       id="clipPath3897"><path
         d="M -168.9464,-22.631723 H 153.5766 V 39.194296 H -168.9464 Z"
         id="path3899"
         style="stroke-width:0.999998" /></clipPath><clipPath
       clipPathUnits="userSpaceOnUse"
       id="clipPath3893"><path
         d="M -171.2738,-21.596123 H 151.2492 V 40.229896 H -171.2738 Z"
         id="path3895"
         style="stroke-width:0.999998" /></clipPath><clipPath
       clipPathUnits="userSpaceOnUse"
       id="clipPath3889"><path
         d="M -171.2738,-21.596123 H 151.2492 V 40.229896 H -171.2738 Z"
         id="path3891"
         style="stroke-width:0.999998" /></clipPath><clipPath
       clipPathUnits="userSpaceOnUse"
       id="clipPath3885"><path
         d="M -170.4204,-17.617823 H 152.1026 V 44.208196 H -170.4204 Z"
         id="path3887"
         style="stroke-width:0.999998" /></clipPath><clipPath
       clipPathUnits="userSpaceOnUse"
       id="clipPath3881"><path
         d="M -170.4204,-17.617823 H 152.1026 V 44.208196 H -170.4204 Z"
         id="path3883"
         style="stroke-width:0.999998" /></clipPath><clipPath
       clipPathUnits="userSpaceOnUse"
       id="clipPath3877"><path
         d="M -176.0521,-10.574323 H 146.4709 V 51.251696 H -176.0521 Z"
         id="path3879"
         style="stroke-width:0.999998" /></clipPath><clipPath
       clipPathUnits="userSpaceOnUse"
       id="clipPath3873"><path
         d="M -176.0521,-10.574323 H 146.4709 V 51.251696 H -176.0521 Z"
         id="path3875"
         style="stroke-width:0.999998" /></clipPath><clipPath
       clipPathUnits="userSpaceOnUse"
       id="clipPath3869"><path
         d="M -180.725,-10.778223 H 141.798 V 51.047796 H -180.725 Z"
         id="path3871"
         style="stroke-width:0.999998" /></clipPath><clipPath
       clipPathUnits="userSpaceOnUse"
       id="clipPath3865"><path
         d="M -180.725,-10.778223 H 141.798 V 51.047796 H -180.725 Z"
         id="path3867"
         style="stroke-width:0.999998" /></clipPath><clipPath
       clipPathUnits="userSpaceOnUse"
       id="clipPath3861"><path
         d="M -183.6998,-10.967123 H 138.8232 V 50.858896 H -183.6998 Z"
         id="path3863"
         style="stroke-width:0.999998" /></clipPath><clipPath
       clipPathUnits="userSpaceOnUse"
       id="clipPath3857"><path
         d="M -183.6998,-10.967123 H 138.8232 V 50.858896 H -183.6998 Z"
         id="path3859"
         style="stroke-width:0.999998" /></clipPath><clipPath
       clipPathUnits="userSpaceOnUse"
       id="clipPath3853"><path
         d="M -190.3857,-8.7472227 H 132.1373 V 53.078796 H -190.3857 Z"
         id="path3855"
         style="stroke-width:0.999998" /></clipPath><clipPath
       clipPathUnits="userSpaceOnUse"
       id="clipPath3849"><path
         d="M -190.3857,-8.7472227 H 132.1373 V 53.078796 H -190.3857 Z"
         id="path3851"
         style="stroke-width:0.999998" /></clipPath><clipPath
       clipPathUnits="userSpaceOnUse"
       id="clipPath3845"><path
         d="M -193.583,-10.312223 H 128.94 V 51.513796 H -193.583 Z"
         id="path3847"
         style="stroke-width:0.999998" /></clipPath><clipPath
       clipPathUnits="userSpaceOnUse"
       id="clipPath3841"><path
         d="M -193.583,-10.312223 H 128.94 V 51.513796 H -193.583 Z"
         id="path3843"
         style="stroke-width:0.999998" /></clipPath><clipPath
       clipPathUnits="userSpaceOnUse"
       id="clipPath3837"><path
         d="M -198.5261,-10.768223 H 123.9969 V 51.057796 H -198.5261 Z"
         id="path3839"
         style="stroke-width:0.999998" /></clipPath><clipPath
       clipPathUnits="userSpaceOnUse"
       id="clipPath3833"><path
         d="M -198.5261,-10.768223 H 123.9969 V 51.057796 H -198.5261 Z"
         id="path3835"
         style="stroke-width:0.999998" /></clipPath><clipPath
       clipPathUnits="userSpaceOnUse"
       id="clipPath3829"><path
         d="M -203.9343,-8.4709227 H 118.5887 V 53.355096 H -203.9343 Z"
         id="path3831"
         style="stroke-width:0.999998" /></clipPath><clipPath
       clipPathUnits="userSpaceOnUse"
       id="clipPath3825"><path
         d="M -203.9343,-8.4709227 H 118.5887 V 53.355096 H -203.9343 Z"
         id="path3827"
         style="stroke-width:0.999998" /></clipPath><clipPath
       clipPathUnits="userSpaceOnUse"
       id="clipPath3821"><path
         d="M -207.2215,-14.620423 H 115.3015 V 47.205596 H -207.2215 Z"
         id="path3823"
         style="stroke-width:0.999998" /></clipPath><clipPath
       clipPathUnits="userSpaceOnUse"
       id="clipPath3817"><path
         d="M -207.2215,-14.620423 H 115.3015 V 47.205596 H -207.2215 Z"
         id="path3819"
         style="stroke-width:0.999998" /></clipPath><clipPath
       clipPathUnits="userSpaceOnUse"
       id="clipPath3813"><path
         d="M -208.0472,-20.098423 H 114.4758 V 41.727596 H -208.0472 Z"
         id="path3815"
         style="stroke-width:0.999998" /></clipPath><clipPath
       clipPathUnits="userSpaceOnUse"
       id="clipPath3809"><path
         d="M -208.0472,-20.098423 H 114.4758 V 41.727596 H -208.0472 Z"
         id="path3811"
         style="stroke-width:0.999998" /></clipPath><clipPath
       clipPathUnits="userSpaceOnUse"
       id="clipPath3805"><path
         d="M -209.8843,-24.176723 H 112.6387 V 37.649296 H -209.8843 Z"
         id="path3807"
         style="stroke-width:0.999998" /></clipPath><clipPath
       clipPathUnits="userSpaceOnUse"
       id="clipPath3801"><path
         d="M -209.8843,-24.176723 H 112.6387 V 37.649296 H -209.8843 Z"
         id="path3803"
         style="stroke-width:0.999998" /></clipPath><clipPath
       clipPathUnits="userSpaceOnUse"
       id="clipPath3797"><path
         d="M -211.6246,-27.064523 H 110.8984 V 34.761496 H -211.6246 Z"
         id="path3799"
         style="stroke-width:0.999998" /></clipPath><clipPath
       clipPathUnits="userSpaceOnUse"
       id="clipPath3793"><path
         d="M -211.6246,-27.064523 H 110.8984 V 34.761496 H -211.6246 Z"
         id="path3795"
         style="stroke-width:0.999998" /></clipPath><clipPath
       clipPathUnits="userSpaceOnUse"
       id="clipPath3789"><path
         d="M -214.4759,-31.904223 H 108.0471 V 29.921796 H -214.4759 Z"
         id="path3791"
         style="stroke-width:0.999998" /></clipPath><clipPath
       clipPathUnits="userSpaceOnUse"
       id="clipPath3785"><path
         d="M -214.4759,-31.904223 H 108.0471 V 29.921796 H -214.4759 Z"
         id="path3787"
         style="stroke-width:0.999998" /></clipPath><clipPath
       clipPathUnits="userSpaceOnUse"
       id="clipPath3781"><path
         d="M -190.89,-31.814823 H 131.633 V 30.011196 H -190.89 Z"
         id="path3783"
         style="stroke-width:0.999998" /></clipPath><clipPath
       clipPathUnits="userSpaceOnUse"
       id="clipPath3777"><path
         d="M -191.2707,-42.347923 H 131.2523 V 19.478096 H -191.2707 Z"
         id="path3779"
         style="stroke-width:0.999998" /></clipPath><clipPath
       clipPathUnits="userSpaceOnUse"
       id="clipPath2901"><path
         d="M -190.0341,-15.028323 H 132.4889 V 46.797696 H -190.0341 Z"
         id="path2903"
         style="stroke-width:0.999998" /></clipPath><clipPath
       clipPathUnits="userSpaceOnUse"
       id="clipPath2897"><path
         d="M -194.482,-24.294223 H 128.041 V 37.531796 H -194.482 Z"
         id="path2899"
         style="stroke-width:0.999998" /></clipPath><style
       id="style1">&#10;      .cls-1 {&#10;        fill: #fff;&#10;      }&#10;&#10;      .cls-2, .cls-3, .cls-4, .cls-5 {&#10;        stroke-miterlimit: 426.67;&#10;      }&#10;&#10;      .cls-2, .cls-4 {&#10;        stroke-width: 64px;&#10;      }&#10;&#10;      .cls-2, .cls-5 {&#10;        stroke: #fff;&#10;      }&#10;&#10;      .cls-6 {&#10;        clip-path: url(#clippath-1);&#10;      }&#10;&#10;      .cls-7 {&#10;        fill: #012169;&#10;      }&#10;&#10;      .cls-8 {&#10;        clip-path: url(#clippath);&#10;      }&#10;&#10;      .cls-3 {&#10;        stroke-width: 42.67px;&#10;      }&#10;&#10;      .cls-3, .cls-4 {&#10;        stroke: #c8102e;&#10;      }&#10;&#10;      .cls-9 {&#10;        fill: none;&#10;      }&#10;&#10;      .cls-5 {&#10;        stroke-width: 106.67px;&#10;      }&#10;    </style><clipPath
       id="clippath"><rect
         class="cls-9"
         width="640"
         height="320"
         id="rect1-1" /></clipPath><clipPath
       id="clippath-1"><path
         class="cls-9"
         d="m0,0v160h640v160h0L0,0Zm640,0h-320v320H0L640,0Z"
         id="path1" /></clipPath></defs><g
     inkscape:label="Layer 1"
     inkscape:groupmode="layer"
     id="layer1"><g
       id="g1"
       transform="matrix(11.676461,0,0,9.6379995,131.28096,131.41835)"><rect
         width="10"
         height="6"
         fill="#cc0000"
         id="rect1"
         x="0"
         y="0" /><rect
         width="10"
         height="3"
         id="rect2"
         x="0"
         y="0" /><circle
         cx="5"
         cy="3"
         r="1.5"
         fill="#ffff00"
         id="circle2" /></g><g
       id="g7816"
       transform="matrix(1.0117576,0,0,1.0117576,248.04557,-111.2517)"><path
         d="M -101.15872,56.911551 V -105.08845 h 324 V 56.911551"
         style="fill:#006747;fill-opacity:1;fill-rule:nonzero;stroke:none"
         id="path224"
         transform="matrix(0.35277777,0,0,-0.35277777,35.686549,259.92712)"
         clip-path="none" /><path
         d="m 1.3423456e-6,253.34374 v 30.1625 H 114.3 v -30.1625"
         style="fill:#000000;fill-opacity:1;fill-rule:nonzero;stroke:none;stroke-width:0.256287"
         id="path5655"
         clip-path="none" /><path
         d="m 1.3423456e-6,254.93124 v 26.9875 H 114.3 v -26.9875"
         style="fill:#012169;fill-opacity:1;fill-rule:nonzero;stroke:none;stroke-width:0.242423"
         id="path5657"
         clip-path="none" /><g
         id="g6944"
         transform="matrix(3.5156835,0,0,3.5156835,-167.21163,-666.27799)"><g
           id="g458"
           transform="matrix(0.35277777,0,0,-0.35277777,64.11909,266.04537)"
           clip-path="url(#clipPath3781)"><path
             d="M 0,0 -0.856,2.699 -1.709,0 -4.54,0.022 l 2.303,-1.645 -0.896,-2.686 2.277,1.681 2.277,-1.681 -0.894,2.686 2.302,1.645 z"
             style="fill:#ffffff;fill-opacity:1;fill-rule:nonzero;stroke:none"
             id="path460" /></g><g
           id="g462"
           transform="matrix(0.35277777,0,0,-0.35277777,64.253392,262.32952)"
           clip-path="url(#clipPath3777)"><path
             d="M 0,0 0.007,-0.023 -1.236,-4.22 -2.472,0 C -15.785,-2.848 -9.77,-14.411 -8.175,-17.439 l -3.235,-2.614 5.727,1.999 v 7.549 c 0,2.454 1.988,4.443 4.443,4.443 2.454,0 4.443,-1.989 4.443,-4.443 l 0.008,-7.549 5.727,-1.999 -3.233,2.614 C 7.298,-14.411 13.314,-2.848 0,0"
             style="fill:#ffffff;fill-opacity:1;fill-rule:nonzero;stroke:none"
             id="path464" /></g></g></g><g
       id="g4"
       transform="matrix(0.09045912,0,0,0.09045912,15.493285,131.35251)"><g
         id="g5"><rect
           class="cls-7"
           width="1280"
           height="640"
           id="rect2-4"
           x="0"
           y="0" /><g
           class="cls-8"
           clip-path="url(#clippath)"
           id="g2"><path
             class="cls-2"
             d="M 0,0 640,320 M 640,0 0,320"
             id="path2" /></g><g
           class="cls-6"
           clip-path="url(#clippath-1)"
           id="g3"><path
             class="cls-3"
             d="M 0,0 640,320 M 640,0 0,320"
             id="path3" /></g><path
           class="cls-5"
           d="M 320,0 V 320 M 0,160 h 640"
           id="path4" /><path
           class="cls-4"
           d="M 320,0 V 320 M 0,160 h 640"
           id="path5" /></g><g
         id="g6"><g
           id="Comwlth"><path
             id="Star7"
             class="cls-1"
             d="m 320,384 18.51,57.56 56.54,-21.41 -33.46,50.36 52,30.86 -60.23,5.24 8.29,59.89 -41.65,-43.83 -41.65,43.83 8.29,-59.89 -60.23,-5.24 52,-30.86 -33.46,-50.36 56.54,21.41 z" /></g><g
           id="_αCrucis"
           data-name="αCrucis"><path
             id="Star7-2"
             data-name="Star7"
             class="cls-1"
             d="m 960,487.62 8.82,27.41 26.93,-10.2 -15.93,23.98 24.76,14.69 -28.68,2.5 3.95,28.52 -19.83,-20.87 -19.83,20.87 3.95,-28.52 -28.68,-2.5 24.76,-14.69 -15.93,-23.98 26.93,10.2 8.82,-27.41 z" /></g><g
           id="_βCrucis"
           data-name="βCrucis"><path
             id="Star7-3"
             data-name="Star7"
             class="cls-1"
             d="m 800,234.29 8.82,27.41 26.93,-10.2 -15.93,23.98 24.76,14.69 -28.68,2.5 3.95,28.52 -19.83,-20.87 -19.83,20.87 3.95,-28.52 -28.68,-2.5 24.76,-14.69 -15.93,-23.98 26.93,10.2 8.82,-27.41 z" /></g><g
           id="_γCrucis"
           data-name="γCrucis"><path
             id="Star7-4"
             data-name="Star7"
             class="cls-1"
             d="m 960,60.95 8.82,27.41 26.93,-10.2 -15.93,23.98 24.76,14.69 -28.68,2.5 3.95,28.52 -19.83,-20.87 -19.83,20.87 3.95,-28.52 -28.68,-2.5 24.76,-14.69 -15.93,-23.98 26.93,10.2 8.82,-27.41 z" /></g><g
           id="_δCrucis"
           data-name="δCrucis"><path
             id="Star7-5"
             data-name="Star7"
             class="cls-1"
             d="m 1102.22,191.62 8.82,27.41 26.93,-10.2 -15.93,23.98 24.76,14.69 -28.68,2.5 3.95,28.52 -19.83,-20.87 -19.83,20.87 3.95,-28.52 -28.68,-2.5 24.76,-14.69 -15.93,-23.98 26.93,10.2 8.82,-27.41 z" /></g><g
           id="_εCrucis"
           data-name="εCrucis"><path
             id="Star5"
             class="cls-1"
             d="m 1024,320 6.97,17.08 18.4,1.35 -14.09,11.9 4.4,17.91 -15.67,-9.72 -15.67,9.72 4.4,-17.91 -14.09,-11.9 18.4,-1.35 6.97,-17.08 z" /></g></g></g><g
       id="g7"
       transform="matrix(0.14883384,0,0,0.12046239,363.68946,131.41835)"><path
         fill="#770088"
         d="M 0,0 H 777 V 480 H 0 Z"
         id="path1-8" /><path
         fill="#004cff"
         d="M 0,0 H 777 V 400 H 0 Z"
         id="path2-0" /><path
         fill="#028121"
         d="M 0,0 H 777 V 320 H 0 Z"
         id="path3-4" /><path
         fill="#ffee00"
         d="M 0,0 H 777 V 240 H 0 Z"
         id="path4-6" /><path
         fill="#ff8d00"
         d="M 0,0 H 777 V 160 H 0 Z"
         id="path5-0" /><path
         fill="#e50000"
         d="M 0,0 H 777 V 80 H 0 Z"
         id="path6" /></g></g></svg>
