<?xml version="1.0" encoding="UTF-8" standalone="no"?>
<svg
   id="Layer_1"
   x="0px"
   y="0px"
   style="enable-background:new 0 0 119.72 80.25;"
   xml:space="preserve"
   viewBox="19.45 19.45 80.82 44.89"
   version="1.1"
   sodipodi:docname="TML.svg"
   inkscape:export-filename="TML.png"
   inkscape:export-xdpi="180"
   inkscape:export-ydpi="180"
   inkscape:version="1.3 (0e150ed, 2023-07-21)"
   xmlns:inkscape="http://www.inkscape.org/namespaces/inkscape"
   xmlns:sodipodi="http://sodipodi.sourceforge.net/DTD/sodipodi-0.dtd"
   xmlns="http://www.w3.org/2000/svg"
   xmlns:svg="http://www.w3.org/2000/svg"><defs
     id="defs13" /><sodipodi:namedview
     id="namedview13"
     pagecolor="#ffffff"
     bordercolor="#000000"
     borderopacity="0.25"
     inkscape:showpageshadow="2"
     inkscape:pageopacity="0.0"
     inkscape:pagecheckerboard="0"
     inkscape:deskcolor="#d1d1d1"
     inkscape:zoom="9.403613"
     inkscape:cx="40.41"
     inkscape:cy="22.438184"
     inkscape:window-width="1392"
     inkscape:window-height="1027"
     inkscape:window-x="0"
     inkscape:window-y="25"
     inkscape:window-maximized="0"
     inkscape:current-layer="Layer_1" /><style
     type="text/css"
     id="style1">	.st0{fill:#EE255C;}	.st1{fill:#043673;}</style><g
     id="g13">	<g
   id="g3">		<rect
   x="27.23"
   y="28.24"
   class="st0"
   width="3.89"
   height="7.46"
   id="rect1" />		<rect
   x="27.23"
   y="39.59"
   class="st0"
   width="3.89"
   height="7.46"
   id="rect2" />		<path
   class="st0"
   d="M53.29,22.28H49.4v6.28l-2.72-0.33v3.89l2.72,0.33v7.26v1.46c0,1.75,0.51,3.17,1.53,4.25    c1.02,1.09,2.37,1.63,4.04,1.63h1.02v-3.89h-1.02c-0.52,0-0.91-0.11-1.17-0.33c-0.34-0.32-0.52-0.87-0.52-1.67v-1.46v-7.26    l2.72-0.33v-3.89l-2.72,0.33V22.28z"
   id="path2" />		<path
   class="st0"
   d="M83.52,29.07c-1.07-0.55-2.29-0.82-3.64-0.82c-1.34,0-2.55,0.27-3.64,0.82c-0.95,0.51-1.71,1.27-2.3,2.28    c-0.7-1-1.58-1.76-2.62-2.28c-1.08-0.55-2.3-0.82-3.64-0.82s-2.55,0.27-3.64,0.82c-0.18,0.1-0.35,0.21-0.52,0.33v-1.13h-3.89    v18.79h3.89v-9.54c0.01-1.52,0.29-2.73,0.82-3.62c0.69-1.17,1.8-1.76,3.33-1.76c1.56,0,2.68,0.61,3.37,1.82    c0.52,0.92,0.79,2.15,0.79,3.7v9.41h3.89v-9.41v-0.08c0.01-1.53,0.28-2.75,0.8-3.66c0.7-1.19,1.82-1.78,3.35-1.78    c1.56,0,2.68,0.61,3.37,1.82c0.54,0.92,0.8,2.15,0.8,3.7v9.41h3.87v-9.41c0-2.04-0.39-3.81-1.17-5.31    C85.99,30.86,84.91,29.77,83.52,29.07z"
   id="path3" />		<rect
   x="91.54"
   y="19.45"
   class="st0"
   width="3.89"
   height="27.61"
   id="rect3" />	</g>	<g
   id="g12">		<rect
   x="19.45"
   y="28.24"
   class="st1"
   width="3.89"
   height="18.81"
   id="rect4" />		<rect
   x="35.01"
   y="28.24"
   class="st1"
   width="3.89"
   height="18.81"
   id="rect5" />		<path
   class="st1"
   d="M50.6,60.72c0.74-0.15,1.32-0.51,1.75-1.09c0.43-0.58,0.64-1.31,0.64-2.18s-0.21-1.6-0.63-2.18    c-0.42-0.57-1-0.94-1.74-1.09l-0.08-0.01c-0.22-0.04-0.45-0.06-0.68-0.06s-0.46,0.02-0.68,0.06l-0.07,0.01    c-0.39,0.09-0.72,0.25-1,0.48v-0.55h-1.38v9.82h1.38v-3.69c0.28,0.24,0.62,0.4,1.02,0.48l0.06,0.01c0.21,0.04,0.44,0.06,0.67,0.06    c0.23,0,0.45-0.02,0.67-0.06L50.6,60.72z M48.45,58.78c-0.22-0.32-0.33-0.76-0.33-1.31v-0.03c0-0.55,0.11-0.99,0.33-1.32    c0.29-0.43,0.76-0.64,1.41-0.64c0.65,0,1.13,0.22,1.42,0.65c0.22,0.33,0.33,0.77,0.33,1.32c0,0.55-0.11,0.99-0.33,1.31    c-0.29,0.43-0.76,0.65-1.42,0.65C49.21,59.42,48.74,59.2,48.45,58.78z"
   id="path5" />		<path
   class="st1"
   d="M58.49,54.12v0.54c-0.28-0.24-0.62-0.39-1.01-0.48l-0.07-0.02c-0.21-0.04-0.44-0.05-0.67-0.05    c-0.23,0-0.45,0.02-0.67,0.05l-0.07,0.02c-0.74,0.15-1.32,0.51-1.75,1.08c-0.43,0.58-0.64,1.31-0.64,2.19    c0,0.87,0.21,1.6,0.64,2.17c0.42,0.58,0.99,0.94,1.73,1.1l0.08,0.01c0.22,0.04,0.44,0.06,0.68,0.06s0.46-0.02,0.68-0.06l0.08-0.01    c0.38-0.09,0.71-0.25,0.99-0.48v0.55h1.38v-6.68H58.49z M58.49,57.46c0,0.55-0.11,0.99-0.33,1.31c-0.29,0.43-0.76,0.64-1.41,0.64    c-0.65,0-1.13-0.22-1.42-0.65C55.11,58.44,55,58,55,57.45c0-0.55,0.11-0.99,0.33-1.32c0.29-0.43,0.76-0.64,1.42-0.64    c0.65,0,1.12,0.21,1.41,0.64c0.22,0.33,0.33,0.77,0.33,1.32V57.46z"
   id="path6" />		<path
   class="st1"
   d="M63.48,59.42c-0.19,0-0.33-0.04-0.42-0.12c-0.12-0.11-0.18-0.31-0.18-0.59v-0.52v-2.58l0.97-0.12v-1.38    l-0.97,0.12v-2.24H61.5v2.24l-0.97-0.12v1.38l0.97,0.12v2.58v0.52c0,0.62,0.18,1.13,0.54,1.51s0.84,0.58,1.44,0.58h0.36v-1.38    H63.48z"
   id="path7" />		<path
   class="st1"
   d="M70,55.57c-0.27-0.53-0.66-0.92-1.15-1.17c-0.39-0.2-0.82-0.29-1.29-0.29c-0.48,0-0.91,0.1-1.29,0.29    c-0.06,0.04-0.12,0.08-0.18,0.12v-3.54h-1.38v9.82h1.38v-3.39c0-0.54,0.1-0.97,0.29-1.29c0.25-0.42,0.64-0.63,1.19-0.63    c0.55,0,0.95,0.22,1.2,0.65c0.19,0.33,0.28,0.77,0.28,1.32v3.34h1.38v-3.34C70.41,56.73,70.27,56.1,70,55.57z"
   id="path8" />		<path
   class="st1"
   d="M77.41,57.45c0-1.02-0.28-1.83-0.85-2.43c-0.57-0.61-1.33-0.91-2.28-0.91s-1.71,0.3-2.28,0.91    c-0.57,0.6-0.85,1.42-0.85,2.43c0,1.02,0.28,1.83,0.85,2.43c0.57,0.61,1.33,0.91,2.28,0.91s1.71-0.3,2.28-0.91    C77.12,59.28,77.41,58.47,77.41,57.45z M75.7,58.78c-0.29,0.43-0.76,0.64-1.42,0.64c-0.65,0-1.13-0.21-1.42-0.64    c-0.22-0.33-0.33-0.77-0.33-1.32c0-0.55,0.11-0.99,0.33-1.32c0.29-0.43,0.76-0.64,1.42-0.64c0.65,0,1.13,0.21,1.42,0.64    c0.22,0.33,0.33,0.77,0.33,1.32C76.03,58,75.92,58.44,75.7,58.78z"
   id="path9" />		<rect
   x="78.22"
   y="50.98"
   class="st1"
   width="1.38"
   height="9.82"
   id="rect9" />		<path
   class="st1"
   d="M86.68,57.45c0-1.02-0.28-1.83-0.85-2.43c-0.57-0.61-1.33-0.91-2.28-0.91s-1.71,0.3-2.28,0.91    c-0.57,0.6-0.85,1.42-0.85,2.43c0,1.02,0.28,1.83,0.85,2.43c0.57,0.61,1.33,0.91,2.28,0.91s1.71-0.3,2.28-0.91    C86.4,59.28,86.68,58.47,86.68,57.45z M84.97,58.78c-0.29,0.43-0.76,0.64-1.42,0.64c-0.65,0-1.13-0.21-1.42-0.64    c-0.22-0.33-0.33-0.77-0.33-1.32c0-0.55,0.11-0.99,0.33-1.32c0.29-0.43,0.76-0.64,1.42-0.64c0.65,0,1.13,0.21,1.42,0.64    c0.22,0.33,0.33,0.77,0.33,1.32C85.3,58,85.19,58.44,84.97,58.78z"
   id="path10" />		<path
   class="st1"
   d="M93.6,54.12h-1.38v0.55c-0.28-0.24-0.62-0.4-1.01-0.48l-0.06-0.01c-0.21-0.04-0.44-0.06-0.67-0.06    s-0.45,0.02-0.67,0.06l-0.07,0.01c-0.74,0.15-1.32,0.51-1.75,1.09c-0.43,0.58-0.64,1.31-0.64,2.18s0.21,1.6,0.63,2.18    c0.42,0.57,1,0.94,1.74,1.09l0.07,0.01c0.22,0.04,0.45,0.06,0.68,0.06s0.46-0.02,0.67-0.06l0.08-0.01    c0.39-0.09,0.72-0.25,0.99-0.48V61c0,1.31-0.65,1.96-1.95,1.96c-0.36,0-0.68-0.06-0.95-0.17c-0.36-0.15-0.62-0.39-0.78-0.73    l-1.24,0.61c0.27,0.54,0.66,0.95,1.17,1.24c0.51,0.29,1.12,0.43,1.81,0.43c1.01,0,1.82-0.3,2.42-0.91c0.6-0.6,0.91-1.42,0.91-2.43    V54.12z M91.89,58.78c-0.29,0.43-0.76,0.65-1.41,0.65c-0.65,0-1.13-0.22-1.42-0.65c-0.22-0.33-0.33-0.77-0.33-1.32    c0-0.55,0.11-0.99,0.33-1.32c0.29-0.43,0.76-0.65,1.42-0.65c0.65,0,1.12,0.21,1.41,0.64c0.22,0.33,0.33,0.76,0.33,1.31v0.03    C92.22,58.02,92.11,58.45,91.89,58.78z"
   id="path11" />		<path
   class="st1"
   d="M100.27,54.12h-1.38v3.39c0,0.54-0.1,0.97-0.29,1.29c-0.25,0.41-0.64,0.62-1.19,0.62    c-0.55,0-0.95-0.21-1.2-0.64c-0.19-0.33-0.28-0.77-0.28-1.32v-3.34h-1.38v3.34c0,0.73,0.14,1.36,0.42,1.89    c0.27,0.53,0.66,0.91,1.15,1.16c0.39,0.2,0.82,0.29,1.29,0.29s0.91-0.1,1.29-0.29c0.06-0.03,0.12-0.07,0.18-0.11v0.74    c0,1.13-0.56,1.7-1.69,1.7c-0.31,0-0.59-0.05-0.82-0.14c-0.31-0.13-0.53-0.34-0.67-0.63l-1.24,0.61c0.25,0.5,0.6,0.88,1.08,1.15    c0.47,0.26,1.03,0.39,1.66,0.39c0.94,0,1.68-0.28,2.23-0.84c0.56-0.56,0.84-1.31,0.84-2.24V54.12z"
   id="path12" />	</g></g></svg>
