<?xml version="1.0" encoding="UTF-8" standalone="no"?>
<!-- Created with Inkscape (http://www.inkscape.org/) -->

<svg
   xmlns:dc="http://purl.org/dc/elements/1.1/"
   xmlns:cc="http://creativecommons.org/ns#"
   xmlns:rdf="http://www.w3.org/1999/02/22-rdf-syntax-ns#"
   xmlns:svg="http://www.w3.org/2000/svg"
   xmlns="http://www.w3.org/2000/svg"
   xmlns:sodipodi="http://sodipodi.sourceforge.net/DTD/sodipodi-0.dtd"
   xmlns:inkscape="http://www.inkscape.org/namespaces/inkscape"
   width="1000px"
   height="1000px"
   viewBox="0 0 1000 1000"
   version="1.1"
   id="SVGRoot"
   inkscape:version="0.92.2 (5c3e80d, 2017-08-06)"
   sodipodi:docname="Toexport.svg"
   inkscape:export-filename="C:\Users\Thomas\Desktop\Website Backups\Mowbray Medical 7619 Changed\images\doctor.png"
   inkscape:export-xdpi="200"
   inkscape:export-ydpi="200">
  <sodipodi:namedview
     id="base"
     pagecolor="#ffffff"
     bordercolor="#666666"
     borderopacity="1.0"
     inkscape:pageopacity="0.0"
     inkscape:pageshadow="2"
     inkscape:zoom="0.512"
     inkscape:cx="500.97656"
     inkscape:cy="500"
     inkscape:document-units="px"
     inkscape:current-layer="layer1"
     showgrid="false"
     inkscape:window-width="1680"
     inkscape:window-height="987"
     inkscape:window-x="1912"
     inkscape:window-y="85"
     inkscape:window-maximized="1" />
  <defs
     id="defs1391" />
  <metadata
     id="metadata1394">
    <rdf:RDF>
      <cc:Work
         rdf:about="">
        <dc:format>image/svg+xml</dc:format>
        <dc:type
           rdf:resource="http://purl.org/dc/dcmitype/StillImage" />
        <dc:title></dc:title>
      </cc:Work>
    </rdf:RDF>
  </metadata>
  <g
     id="layer1"
     inkscape:groupmode="layer"
     inkscape:label="Layer 1">
    <path
       inkscape:connector-curvature="0"
       d="m 639.62424,930.03511 c 141.37213,0 255.98099,0.35748 255.98099,-141.03407 0,-105.8262 -64.25129,-196.57995 -155.87457,-235.55584 0.43482,0.8599 0.93715,1.6715 1.35275,2.56039 5.4492,11.68117 8.98538,23.84544 10.57965,35.66188 3.96142,1.11112 7.86474,2.62801 11.64251,4.63769 28.06764,15.02416 38.65703,49.94209 23.6232,78.01941 -15.02418,28.05801 -49.94207,38.63774 -78.00972,23.62322 -28.07739,-15.02417 -38.64745,-49.96141 -23.62328,-78.00976 8.41553,-15.73915 23.09188,-25.97105 39.30439,-29.28506 -3.48788,-17.74881 -12.54104,-37.15946 -26.95648,-50.96624 -11.21744,-2.61837 -22.72467,-4.51209 -34.45418,-5.57489 -1.02416,46.68604 -155.38183,161.20793 -155.38183,161.20793 0,0 -154.35769,-114.52189 -155.37218,-161.20793 -8.25121,0.75362 -16.38649,1.90339 -24.3865,3.42029 -17.62322,14.06766 -30.01936,34.20294 -33.41067,50.57011 6.30919,3.5459 11.24638,9.37199 14.00002,16.53142 23.9807,10.5121 45.26576,34.11599 61.66191,68.41555 2.41546,5.06282 2.41546,10.8406 0.11594,15.89374 10.1546,25.42998 15.97104,53.23678 15.97104,76.61845 0,37.01454 -1.61354,60.20295 -32.65705,66.3672 -2.96619,2.90822 -6.91788,4.54111 -11.0918,4.54111 h -23.84544 c -8.80194,0 -15.97104,-7.1691 -15.97104,-15.98074 v -0.30911 -0.0487 c 0.2029,-8.63765 7.30436,-15.61351 15.97104,-15.61351 h 23.84544 c 2.30918,0 4.57971,0.51207 6.686,1.48794 5.64252,-1.18841 6.58937,-2.80196 7.11112,-3.71018 2.98551,-5.14009 3.58455,-17.86475 3.58455,-36.73434 0,-20.3865 -5.19809,-44.81165 -14.28022,-67.31409 -4.06764,-1.7971 -7.39131,-4.99518 -9.30436,-8.99518 -15.63286,-32.72468 -36.80197,-53.03388 -55.2078,-53.03388 -18.80195,0 -41.00487,21.93239 -56.56045,55.87446 -2.11594,4.62803 -6.05798,8.18359 -10.83094,9.86475 -8.30918,21.75848 -12.87923,44.25126 -12.87923,63.59428 0,14.79229 0.29951,31.06284 3.88406,36.81164 0.54106,0.88889 1.65217,2.64736 8.02899,3.82611 2.21256,-1.10149 4.65701,-1.69083 7.16909,-1.69083 h 23.87443 c 8.4831,0 15.44929,6.65702 15.93238,15.03384 l 0.0386,0.0966 v 0.85024 c 0,8.81164 -7.16908,15.98074 -15.97103,15.98074 h -23.87443 c -3.92271,0 -7.69083,-1.47829 -10.62803,-4.11594 -8.57973,-1.42035 -19.96138,-4.80193 -26.96622,-16.03868 -6.64735,-10.68604 -7.86474,-25.4783 -7.86474,-50.75369 0,-23.10148 5.45894,-49.65224 15.39132,-75.00493 -1.6715,-4.61836 -1.47827,-9.63285 0.57005,-14.0773 9.83576,-21.50728 22.27056,-39.81648 35.95173,-52.99524 7.98069,-7.71015 16.55075,-13.72948 25.50738,-17.95172 2.90812,-8.16425 8.72455,-14.74397 16.08687,-18.3092 1.68117,-11.91305 6.34794,-24.32853 13.36244,-36.11599 -94.57026,37.63291 -161.43024,129.95186 -161.43024,237.90368 0,141.39154 114.60883,141.03406 255.97132,141.03406 z"
       id="path2"
       style="fill:#93d250;fill-opacity:1;stroke-width:9.66184711" />
    <path
       inkscape:connector-curvature="0"
       d="m 309.38229,303.07774 c 0.13527,1.83576 0.29952,3.66185 0.47343,5.60387 12.69567,143.73931 97.80689,252.13558 197.95194,252.13558 100.14505,0 185.25628,-108.39627 197.94226,-252.10659 l 0.44449,-5.2657 c 0.86956,-5.98069 1.46855,-12.14495 1.85509,-18.85027 0.25116,-4.34783 0.42508,-8.70533 0.42508,-13.12079 0,-10.65702 -0.77291,-21.40099 -2.28017,-31.97105 C 691.4407,137.42537 606.1556,60.46875 507.80766,60.46875 c -98.34795,0 -183.63307,76.95662 -198.38673,179.01472 -1.51681,10.43479 -2.28018,21.18844 -2.28018,31.98071 0,4.4058 0.1739,8.7633 0.40579,13.14011 0.39614,6.78262 1.0145,12.94688 1.83575,18.47345 z"
       id="path4"
       style="fill:#93d250;fill-opacity:1;stroke-width:9.66184711" />
    <circle
       cx="736.10767"
       cy="647.14575"
       r="28.821293"
       id="circle6"
       style="fill:#93d250;fill-opacity:1;stroke-width:9.66184711" />
  </g>
</svg>
